<svg width="100" height="111" xmlns="http://www.w3.org/2000/svg" data-name="Layer 1">
 <title>Artboard 14</title>

 <g>
  <title>Layer 1</title>
  <path id="svg_1" d="m34.39,27.3c-0.88,-3.75 -3.1,-16.77 6.6,-22.68a5.21,5.21 0 0 1 -1.85,-4s11,1.25 16.4,0.15s11.11,3.1 12,7.14c0,0 10.85,0.06 6.63,19.36c1.69,-0.07 3.53,1.09 1.67,7.67c-1.41,5 -2.72,6.38 -3.72,6.46a20.85,20.85 0 0 1 -2.53,7l0,6.23l-13.78,10l5.19,6.64l-3.48,5.59l2.72,18.4l-11.77,0l2.72,-18.4l-3.49,-5.59l5.17,-6.59l-13.21,-9.6a1.4,1.4 0 0 1 -0.58,-1.13l0,-5.52a20.86,20.86 0 0 1 -2.53,-7c-1,-0.08 -2.31,-1.48 -3.72,-6.46c-1.83,-6.4 -0.1,-7.68 1.56,-7.67zm-26,55l0,10.8a2.15,2.15 0 0 0 2.15,2.15l32.53,0l-6.39,-34.83a1,1 0 0 0 -1.46,-0.71a148,148 0 0 0 -23.54,15.55a9.12,9.12 0 0 0 -3.3,7.05l0.01,-0.01zm70.13,-15a4.33,4.33 0 0 1 1.54,-0.3a12.76,12.76 0 0 1 6.34,1.26c2,1 2.45,-0.5 2.65,-1.13c0.27,-0.83 0.51,-1.68 0.75,-2.52l0.29,-1a1.85,1.85 0 0 0 -1.16,-2.4a17.53,17.53 0 0 0 -4.36,-1.3c-1.36,-0.21 -1.36,-0.21 -1.37,-1.58c0,-2.88 -0.22,-3.35 -3,-3.35l-1.56,0c-1.62,0 -2.1,0.53 -2.14,2.16c0,0.38 0,0.75 0,1.13l0,0.6c0,1.21 0,1.21 -1.21,1.65c-4.4,1.6 -6.76,4.61 -7,8.94c-0.23,3.7 1.46,6.58 5.16,8.79a29.68,29.68 0 0 0 4.26,2c0.63,0.25 1.26,0.51 1.88,0.78a8.67,8.67 0 0 1 2.06,1.21a2.53,2.53 0 0 1 1,2.3a2.51,2.51 0 0 1 -1.65,1.89a6.75,6.75 0 0 1 -3.55,0.46a16.56,16.56 0 0 1 -5.71,-1.71a2.71,2.71 0 0 0 -1.23,-0.4c-1,0 -1.3,1 -1.47,1.54c-0.32,1 -0.61,2.07 -0.9,3.12c-0.46,1.7 -0.17,2.34 1.42,3.12a19.73,19.73 0 0 0 5.52,1.59a4.43,4.43 0 0 1 0.89,0.19a4.07,4.07 0 0 1 0.07,1l0,2a1.85,1.85 0 0 0 1.93,2l1.41,0l1.62,0a1.78,1.78 0 0 0 2,-1.93c0,-0.31 0,-0.62 0,-0.93c0,-0.63 0,-1.26 0,-1.89s0.15,-0.84 0.8,-1a10.75,10.75 0 0 0 5.54,-3.59a9.87,9.87 0 0 0 2.1,-8.14a10.55,10.55 0 0 0 -5.34,-7.22a44.8,44.8 0 0 0 -4.72,-2.16l-0.63,-0.26a11,11 0 0 1 -2.75,-1.54a2,2 0 0 1 -0.85,-1.81a2.07,2.07 0 0 1 1.36,-1.57l0.01,0z"/>
 </g>
</svg>