<svg width="101" height="111" xmlns="http://www.w3.org/2000/svg" version="1.1">

 <g>
  <title>Layer 1</title>
  <g id="svg_1">
   <path id="svg_2" d="m28.887,41.254c0.44141,0 0.85938,-0.125 1.2539,-0.3125c2,10.641 10.125,18.605 19.852,18.605c9.7266,0 17.855,-7.9688 19.852,-18.613c0.39844,0.19141 0.82422,0.32031 1.2695,0.32031c2.1484,0 3.8906,-2.4219 3.8906,-5.4062s-1.7422,-5.4062 -3.8906,-5.4062c-0.12891,0 -0.25391,0.03516 -0.37891,0.05469c0.07812,-1.0352 0.17188,-2.2109 0.27344,-3.5586c1.0391,-13.273 -5.9688,-15.656 -5.9688,-15.656c2.6797,-1.3828 2.25,-7.2656 2.25,-7.2656c-3.8047,1.2969 -9.168,-0.25781 -9.168,-0.25781c-16.605,-6.832 -24.996,8.9961 -24.996,8.9961s-3.375,-0.51953 -3.4609,3.9766c-0.05078,2.6797 -0.04297,9.082 -0.02344,13.812c-0.24219,-0.06641 -0.49609,-0.10547 -0.75391,-0.10547c-2.1484,0 -3.8906,2.4219 -3.8906,5.4062c0,2.9922 1.7422,5.4102 3.8906,5.4102l-0.00088,0.00028z"/>
   <path id="svg_3" d="m70.629,66.293l-14.961,20.707l-2.332,-14.219l1.9453,-2.7227l-0.64844,-3.7617l-9.2656,0l-0.64844,3.7617l1.9453,2.7227l-2.6172,14.391l-14.676,-20.879c-6.8789,0 -12.453,5.5781 -12.453,12.453l0,19.203l66.164,0l0,-19.199c0,-6.8789 -5.5742,-12.457 -12.453,-12.457l0.00008,0z"/>
  </g>
 </g>
</svg>